<!-- Created with PixiEditor (https://pixieditor.net) -->
<svg version="1.1" viewBox="0 0 580 660" xmlns="http://www.w3.org/2000/svg">
  <path d="M288.446 0C293.769 0.98703 302.198 15.1583 305.763 20.0818L332.399 56.9122C356.455 90.2044 384.026 127.407 406.753 161.316C402.029 165.879 394.881 171.506 389.427 175.119C384.475 170.954 379.956 164.036 376.128 158.67L376.155 255.667L523.363 380.76L559.213 411.622C564.362 416.057 575.147 424.884 579.279 429.706C576.573 434.493 568.269 446.366 563.453 448.646C559.45 447.91 536.142 426.986 531.092 422.743C532.599 485.127 530.779 548.213 531.602 610.651C531.811 626.458 532.038 643.602 531.193 659.297C512.201 659.908 490.165 659.448 470.977 659.449L357.508 659.442L357.592 539.385C357.629 525.442 358.548 489.484 356.451 477.969C354.425 467.203 349.811 457.091 343.005 448.504C330.575 432.813 314.287 426.172 294.909 424.017C293.423 423.959 291.935 423.93 290.449 423.93C270.973 423.902 254.185 430.049 240.309 444.039C231.467 452.969 225.419 464.28 222.903 476.59C220.772 487.133 221.711 525.493 221.726 538.577L221.737 659.362L47.7613 659.303C46.2364 581.037 48.5606 501.049 47.5037 422.548C42.2177 427.256 21.3028 446.886 16.218 448.557C11.709 446.72 2.7041 434.267 0 429.893C4.17117 424.808 14.0989 416.585 19.4939 411.909L55.7737 380.784C104.237 339.278 155.508 297.331 203.076 255.382C202.232 224.413 202.969 189.821 203.079 158.612C199.184 163.825 194.818 170.94 190.405 175.134C185.198 172.32 176.093 165.571 172.192 161.195C176.346 154.586 184.605 143.891 189.44 137.174L225.489 87.121L265.059 31.903C272.405 21.6721 280.621 9.75369 288.446 0ZM262.725 234.009L316.397 234.009L316.397 181.528C316.397 181.528 316.397 148.092 288.446 148.092C262.725 148.092 263.079 181.125 262.725 181.528" fill-rule="nonzero" transform="matrix(1, 0, 0, 1, 0, 0)" fill="#602080" fill-opacity="1" stroke="#602080" stroke-width="0" stroke-linecap="butt" stroke-linejoin="miter" opacity="1" id="Path" />
</svg>