<?xml version="1.0" encoding="UTF-8" standalone="no"?>
<!-- Created with PixiEditor (https://pixieditor.net) -->

<svg
   version="1.1"
   viewBox="0 0 460.89877 525.99396"
   id="svg1"
   sodipodi:docname="Church.svg"
   width="460.89877"
   height="525.99396"
   inkscape:version="1.4.2 (f4327f4, 2025-05-13)"
   xmlns:inkscape="http://www.inkscape.org/namespaces/inkscape"
   xmlns:sodipodi="http://sodipodi.sourceforge.net/DTD/sodipodi-0.dtd"
   xmlns="http://www.w3.org/2000/svg"
   xmlns:svg="http://www.w3.org/2000/svg">
  <defs
     id="defs1" />
  <sodipodi:namedview
     id="namedview1"
     pagecolor="#505050"
     bordercolor="#ffffff"
     borderopacity="1"
     inkscape:showpageshadow="0"
     inkscape:pageopacity="0"
     inkscape:pagecheckerboard="1"
     inkscape:deskcolor="#505050"
     inkscape:zoom="2.0495383"
     inkscape:cx="268.84104"
     inkscape:cy="171.50204"
     inkscape:window-width="3840"
     inkscape:window-height="2131"
     inkscape:window-x="-9"
     inkscape:window-y="-9"
     inkscape:window-maximized="1"
     inkscape:current-layer="svg1" />
  <path
     d="m 229.64425,16.225041 c 5.25285,6.358856 10.41941,11.484911 13.12049,15.215274 l 20.1804,27.905101 c 18.22639,25.224332 39.11673,53.411514 56.33542,79.103174 -8.06431,30.02283 -6.23418,24.62599 -13.12655,48.0639 -3.75195,-3.15568 -7.1766,-8.3972 -10.07694,-12.46283 l 0.0212,35.88537 111.53433,94.77858 27.16153,23.38305 c 3.90198,3.36024 12.07263,10.04815 15.20406,13.70161 -5.50108,23.29239 -5.58183,22.28292 -11.99156,44.71087 -14.76244,-11.94291 -20.69183,-16.41103 -24.51804,-19.6258 1.14105,47.26617 -0.23715,64.70353 0.38641,112.01061 0.15835,11.97641 0.33034,24.96581 -0.31064,36.85737 -14.38881,0.46293 -31.08472,0.1144 -45.62355,0.11516 l -85.97148,-0.005 0.0644,-90.96298 c 0.028,-10.56412 0.72433,-37.80824 -0.86525,-46.53275 -1.53503,-8.15702 -5.03014,-15.81852 -10.18681,-22.32459 -9.41777,-11.88852 -21.75937,-16.92018 -36.44065,-18.55294 -1.12589,-0.0439 -2.25329,-0.0659 -3.37918,-0.0659 -14.75704,-0.0212 -27.47596,4.63615 -37.98932,15.23588 -6.70003,6.76595 -11.28163,15.3359 -13.18792,24.66275 -1.61458,7.98806 -0.90313,37.05209 -0.89177,46.96538 l 0.008,91.51455 -131.815658,-0.0447 c -1.155363,-59.2994 0.605602,-89.54281 -0.195174,-149.02026 -4.005017,3.56708 -8.811252,8.43482 -23.704077,19.7061 -5.107038,-20.23601 -3.269033,-14.18078 -12.287447,-44.50206 3.160346,-3.85273 10.682239,-10.08301 14.769841,-13.62585 l 27.487931,-23.58232 c 36.719318,-31.44764 75.564794,-63.22941 111.606154,-95.0127 -0.64023,-23.46412 -0.0818,-12.06741 0.002,-35.71338 -2.95035,3.94971 -6.25907,9.34049 -9.60189,12.51814 -6.36021,-22.83254 -6.3586,-22.42589 -13.79935,-48.16694 3.14658,-5.00741 9.40414,-13.11063 13.0682,-18.19987 l 27.31307,-37.923476 29.98004,-41.836741 c 5.56656,-7.751594 17.71978,-24.171782 17.71978,-24.171782 z M 210.15636,193.52552 h 40.66539 v -39.76301 c 0,0 0,-25.33328 -21.1775,-25.33328 -19.46895,0 -19.22044,24.97794 -19.48714,25.33252 -7.5e-4,0 -7.5e-4,7.6e-4 -7.5e-4,7.6e-4 v 39.76301"
     fill-rule="nonzero"
     fill="#8f5faf"
     fill-opacity="1"
     stroke="#000000"
     stroke-width="4.51568"
     stroke-linecap="butt"
     stroke-linejoin="miter"
     opacity="1"
     id="Path"
     style="stroke-width:20;stroke-linecap:square;stroke-dasharray:none"
     sodipodi:nodetypes="ccccccccccccccccccccccccccccccccccccccccccsccc" />
</svg>
